<?xml version="1.0" standalone="no"?>
<!DOCTYPE svg PUBLIC "-//W3C//DTD SVG 20010904//EN"
 "http://www.w3.org/TR/2001/REC-SVG-20010904/DTD/svg10.dtd">
<svg version="1.0" xmlns="http://www.w3.org/2000/svg"
 width="1024.000000pt" height="1024.000000pt" viewBox="0 0 1024.000000 1024.000000"
 preserveAspectRatio="xMidYMid meet">

<g transform="translate(0.000000,1024.000000) scale(0.100000,-0.100000)"
fill="#000000" stroke="none">
<path d="M7462 8509 c-59 -29 -92 -88 -92 -161 0 -67 27 -112 85 -145 49 -28
97 -29 150 -3 53 25 68 38 94 80 26 43 27 92 2 145 -45 97 -143 131 -239 84z"/>
<path d="M8054 8399 c-68 -26 -223 -157 -797 -673 -172 -156 -177 -161 -177
-199 0 -38 -9 -49 -237 -284 -131 -135 -294 -305 -363 -379 -183 -196 -1276
-1344 -1471 -1546 -31 -32 -43 -38 -78 -38 -85 0 -149 48 -177 134 -23 67 -14
227 16 314 44 125 123 224 267 334 67 51 95 93 95 143 0 64 -54 128 -131 154
-48 16 -169 14 -259 -5 -180 -37 -333 -122 -472 -263 -142 -143 -241 -318
-306 -541 -67 -230 -85 -284 -128 -375 -80 -170 -220 -309 -390 -389 -39 -18
-152 -62 -251 -96 -321 -112 -443 -167 -580 -265 -490 -349 -613 -962 -313
-1560 223 -443 646 -810 1143 -988 300 -109 575 -157 890 -157 413 0 805 92
1172 275 427 213 748 494 1010 886 173 258 278 492 353 789 116 458 116 896 0
1324 -50 184 -94 298 -171 441 -88 162 -83 157 -121 110 -18 -22 -87 -96 -155
-165 -68 -69 -123 -129 -123 -133 0 -4 16 -41 35 -82 119 -259 184 -601 171
-908 -28 -679 -365 -1293 -934 -1701 -188 -135 -490 -274 -716 -330 l-30 -7
40 43 c100 108 179 258 221 418 22 83 26 126 33 335 7 222 9 246 34 318 57
167 130 237 343 326 161 68 258 138 340 246 56 73 90 144 114 239 26 101 24
161 -7 224 -31 62 -74 92 -133 92 -51 0 -72 -10 -129 -62 -57 -52 -136 -87
-222 -99 -168 -24 -286 41 -298 162 l-5 50 134 137 c74 75 235 243 358 372
124 129 272 285 330 345 59 61 167 175 241 255 74 80 165 177 201 215 36 39
112 120 169 180 359 383 716 762 847 899 l152 159 59 1 c107 3 215 74 264 175
21 42 23 61 25 214 2 184 9 221 56 273 48 56 73 64 184 62 90 -3 103 0 155 25
115 56 175 160 166 288 -16 221 -241 367 -444 288z m-825 -1056 l31 -37 -48
-51 c-26 -27 -124 -131 -218 -230 -93 -99 -281 -296 -419 -439 -137 -143 -279
-291 -315 -330 -36 -39 -110 -118 -165 -176 -56 -58 -166 -175 -246 -260 -79
-85 -262 -278 -404 -428 -427 -448 -533 -560 -692 -731 l-153 -162 0 -50 0
-50 -317 -332 c-175 -182 -379 -395 -453 -473 -74 -78 -138 -142 -141 -143 -3
0 -25 17 -48 39 l-42 40 34 33 c19 17 128 131 243 252 114 121 309 325 433
454 124 128 236 247 248 264 16 21 23 45 23 76 0 42 4 49 78 125 42 45 192
200 332 346 140 146 440 461 665 700 454 481 741 783 1125 1180 140 146 289
300 329 343 41 42 78 77 82 77 4 0 21 -17 38 -37z m228 -196 c-24 -29 -102
-113 -173 -187 -71 -75 -237 -250 -370 -390 -132 -140 -357 -378 -500 -529
-142 -150 -288 -306 -324 -345 -96 -106 -357 -384 -495 -526 -425 -441 -738
-770 -760 -800 -17 -23 -25 -47 -25 -75 0 -33 -8 -50 -41 -90 -51 -63 -386
-419 -673 -717 l-219 -227 -39 37 c-21 20 -37 42 -36 49 2 7 102 115 223 240
122 125 332 346 468 490 l247 262 0 52 c0 58 -40 11 410 480 124 129 331 347
460 484 129 138 339 361 466 495 127 135 285 302 350 371 65 70 315 332 554
584 239 251 437 462 439 468 2 5 21 -9 43 -32 l39 -43 -44 -51z m-2896 -1959
c7 -18 44 -65 82 -105 81 -85 90 -60 -81 -243 -120 -128 -122 -131 -122 -177
l0 -48 -171 -175 c-236 -243 -622 -650 -705 -742 l-69 -78 -65 70 c-36 39 -70
70 -76 70 -11 0 -294 -289 -294 -300 0 -2 30 -35 67 -72 l66 -67 -110 -118
c-61 -65 -127 -133 -147 -152 l-35 -34 -11 29 c-39 102 -54 183 -54 294 -1
131 18 219 70 343 48 111 95 178 204 288 135 136 269 219 565 349 77 34 183
84 236 111 286 147 497 381 589 655 17 48 30 98 30 111 0 33 15 28 31 -9z
m569 -1096 c146 -64 366 -65 483 -1 34 18 29 2 -15 -52 -54 -67 -116 -109
-210 -144 -153 -56 -239 -105 -319 -185 -162 -161 -203 -281 -214 -640 -8
-241 -21 -325 -69 -440 -128 -302 -416 -461 -763 -422 -138 16 -209 35 -308
82 -109 53 -197 113 -275 187 l-65 61 95 99 c52 54 120 125 152 159 l56 61 86
-84 c47 -45 89 -82 93 -82 5 1 73 69 153 151 l144 148 -86 88 -86 87 125 130
c261 270 731 763 797 837 l69 77 51 -46 c28 -25 76 -57 106 -71z m-1772 -972
c-11 -14 -114 -126 -230 -249 l-209 -224 48 -49 c26 -26 50 -47 53 -46 7 4
301 307 393 407 l77 83 41 -42 41 -42 -29 -31 c-15 -17 -91 -97 -168 -177
-141 -147 -255 -273 -255 -282 0 -3 23 -28 50 -55 41 -41 50 -57 50 -85 0 -40
-21 -63 -67 -73 -32 -6 -40 0 -244 196 -263 253 -289 282 -289 324 0 36 21 60
62 70 24 6 36 0 89 -52 l61 -59 138 140 c75 78 179 187 230 243 l94 101 42
-36 42 -37 -20 -25z"/>
<path d="M4524 3221 c-47 -29 -64 -59 -64 -114 0 -86 57 -135 143 -124 31 4
50 15 74 41 41 45 50 79 32 130 -27 76 -117 109 -185 67z"/>
<path d="M4408 2780 c-39 -39 -40 -42 -36 -97 4 -49 9 -60 41 -90 43 -39 88
-43 145 -14 126 65 76 241 -69 241 -35 0 -47 -6 -81 -40z"/>
<path d="M4103 2576 c-87 -39 -98 -178 -19 -230 14 -9 45 -16 71 -16 39 0 52
5 88 39 39 36 42 44 42 90 0 45 -4 55 -36 87 -42 42 -95 53 -146 30z"/>
<path d="M7000 8098 c-57 -29 -90 -89 -90 -164 0 -123 122 -199 235 -144 110
53 137 177 58 271 -51 60 -129 74 -203 37z"/>
</g>
</svg>
